# MagicaVoxel @ Ephtracy

# material
mtllib Road01D.mtl
usemtl palette

# normals
vn -1 0 0
vn 1 0 0
vn 0 0 1
vn 0 0 -1
vn 0 -1 0
vn 0 1 0

# texcoords
vt 0.908203 0.5
vt 0.970703 0.5
vt 0.986328 0.5
vt 0.990234 0.5

# verts
v -7.5 0 7.5
v -7.5 0 6.5
v -7.5 0 3.5
v -7.5 0 2.5
v -7.5 0 -6.5
v -7.5 0 -7.5
v -7.5 1 7.5
v -7.5 1 6.5
v -7.5 1 3.5
v -7.5 1 2.5
v -7.5 1 -6.5
v -7.5 1 -7.5
v 7.5 0 7.5
v 7.5 0 6.5
v 7.5 0 2.5
v 7.5 0 1.5
v 7.5 0 -6.5
v 7.5 0 -7.5
v 7.5 1 7.5
v 7.5 1 6.5
v 7.5 1 2.5
v 7.5 1 1.5
v 7.5 1 -6.5
v 7.5 1 -7.5
v -7.5 0 7.5
v -7.5 1 7.5
v 7.5 0 7.5
v 7.5 1 7.5
v -7.5 0 -7.5
v -7.5 1 -7.5
v -6.5 0 -7.5
v -6.5 1 -7.5
v -4.5 0 -7.5
v -4.5 1 -7.5
v -3.5 0 -7.5
v -3.5 1 -7.5
v 6.5 0 -7.5
v 6.5 1 -7.5
v 7.5 0 -7.5
v 7.5 1 -7.5
v -7.5 0 7.5
v 7.5 0 7.5
v -7.5 0 6.5
v 7.5 0 6.5
v -5.5 0 5.5
v 5.5 0 5.5
v -4.5 0 4.5
v 4.5 0 4.5
v -7.5 0 3.5
v -6.5 0 3.5
v -7.5 0 2.5
v -6.5 0 2.5
v 6.5 0 2.5
v 7.5 0 2.5
v 6.5 0 1.5
v 7.5 0 1.5
v -0.5 0 0.5
v 0.5 0 0.5
v -0.5 0 -0.5
v 0.5 0 -0.5
v -4.5 0 -5.5
v 4.5 0 -5.5
v -7.5 0 -6.5
v -6.5 0 -6.5
v -5.5 0 -6.5
v -4.5 0 -6.5
v -3.5 0 -6.5
v 5.5 0 -6.5
v 6.5 0 -6.5
v 7.5 0 -6.5
v -7.5 0 -7.5
v -6.5 0 -7.5
v -4.5 0 -7.5
v -3.5 0 -7.5
v 6.5 0 -7.5
v 7.5 0 -7.5
v -7.5 1 7.5
v 7.5 1 7.5
v -7.5 1 6.5
v 7.5 1 6.5
v -5.5 1 5.5
v 5.5 1 5.5
v -4.5 1 4.5
v 4.5 1 4.5
v -7.5 1 3.5
v -6.5 1 3.5
v -7.5 1 2.5
v -6.5 1 2.5
v 6.5 1 2.5
v 7.5 1 2.5
v 6.5 1 1.5
v 7.5 1 1.5
v -0.5 1 0.5
v 0.5 1 0.5
v -0.5 1 -0.5
v 0.5 1 -0.5
v -4.5 1 -5.5
v 4.5 1 -5.5
v -7.5 1 -6.5
v -6.5 1 -6.5
v -5.5 1 -6.5
v -4.5 1 -6.5
v -3.5 1 -6.5
v 5.5 1 -6.5
v 6.5 1 -6.5
v 7.5 1 -6.5
v -7.5 1 -7.5
v -6.5 1 -7.5
v -4.5 1 -7.5
v -3.5 1 -7.5
v 6.5 1 -7.5
v 7.5 1 -7.5

# faces
f 7/2/1 2/2/1 1/2/1
f 8/4/1 3/4/1 2/4/1
f 8/2/1 2/2/1 7/2/1
f 9/3/1 4/3/1 3/3/1
f 9/4/1 3/4/1 8/4/1
f 10/4/1 5/4/1 4/4/1
f 10/3/1 4/3/1 9/3/1
f 11/2/1 6/2/1 5/2/1
f 11/4/1 5/4/1 10/4/1
f 12/2/1 6/2/1 11/2/1
f 13/2/2 14/2/2 19/2/2
f 14/4/2 15/4/2 20/4/2
f 19/2/2 14/2/2 20/2/2
f 15/3/2 16/3/2 21/3/2
f 20/4/2 15/4/2 21/4/2
f 16/4/2 17/4/2 22/4/2
f 21/3/2 16/3/2 22/3/2
f 17/2/2 18/2/2 23/2/2
f 22/4/2 17/4/2 23/4/2
f 23/2/2 18/2/2 24/2/2
f 27/2/3 26/2/3 25/2/3
f 28/2/3 26/2/3 27/2/3
f 29/2/4 30/2/4 31/2/4
f 31/2/4 30/2/4 32/2/4
f 31/4/4 32/4/4 33/4/4
f 33/4/4 32/4/4 34/4/4
f 33/3/4 34/3/4 35/3/4
f 35/3/4 34/3/4 36/3/4
f 35/4/4 36/4/4 37/4/4
f 37/4/4 36/4/4 38/4/4
f 37/2/4 38/2/4 39/2/4
f 39/2/4 38/2/4 40/2/4
f 43/2/5 42/2/5 41/2/5
f 44/2/5 42/2/5 43/2/5
f 45/4/5 44/4/5 43/4/5
f 46/4/5 44/4/5 45/4/5
f 47/1/5 46/1/5 45/1/5
f 48/1/5 46/1/5 47/1/5
f 49/4/5 45/4/5 43/4/5
f 50/4/5 45/4/5 49/4/5
f 51/3/5 50/3/5 49/3/5
f 52/4/5 45/4/5 50/4/5
f 52/3/5 50/3/5 51/3/5
f 53/4/5 44/4/5 46/4/5
f 54/4/5 44/4/5 53/4/5
f 55/4/5 53/4/5 46/4/5
f 55/3/5 54/3/5 53/3/5
f 56/3/5 54/3/5 55/3/5
f 57/4/5 48/4/5 47/4/5
f 58/4/5 48/4/5 57/4/5
f 59/4/5 57/4/5 47/4/5
f 59/3/5 58/3/5 57/3/5
f 60/4/5 48/4/5 58/4/5
f 60/3/5 58/3/5 59/3/5
f 61/1/5 47/1/5 45/1/5
f 61/4/5 59/4/5 47/4/5
f 61/4/5 60/4/5 59/4/5
f 62/1/5 46/1/5 48/1/5
f 62/4/5 60/4/5 61/4/5
f 62/4/5 48/4/5 60/4/5
f 63/4/5 52/4/5 51/4/5
f 64/4/5 45/4/5 52/4/5
f 64/4/5 52/4/5 63/4/5
f 65/1/5 61/1/5 45/1/5
f 65/4/5 45/4/5 64/4/5
f 65/1/5 62/1/5 61/1/5
f 66/1/5 62/1/5 65/1/5
f 67/1/5 62/1/5 66/1/5
f 68/4/5 56/4/5 55/4/5
f 68/1/5 62/1/5 67/1/5
f 68/1/5 46/1/5 62/1/5
f 68/4/5 55/4/5 46/4/5
f 69/4/5 56/4/5 68/4/5
f 70/4/5 56/4/5 69/4/5
f 71/2/5 64/2/5 63/2/5
f 72/4/5 66/4/5 65/4/5
f 72/2/5 64/2/5 71/2/5
f 72/4/5 65/4/5 64/4/5
f 73/3/5 67/3/5 66/3/5
f 73/4/5 66/4/5 72/4/5
f 74/4/5 68/4/5 67/4/5
f 74/3/5 67/3/5 73/3/5
f 74/4/5 69/4/5 68/4/5
f 75/2/5 70/2/5 69/2/5
f 75/4/5 69/4/5 74/4/5
f 76/2/5 70/2/5 75/2/5
f 77/2/6 78/2/6 79/2/6
f 79/2/6 78/2/6 80/2/6
f 79/4/6 80/4/6 81/4/6
f 81/4/6 80/4/6 82/4/6
f 81/1/6 82/1/6 83/1/6
f 83/1/6 82/1/6 84/1/6
f 79/4/6 81/4/6 85/4/6
f 85/4/6 81/4/6 86/4/6
f 85/3/6 86/3/6 87/3/6
f 86/4/6 81/4/6 88/4/6
f 87/3/6 86/3/6 88/3/6
f 82/4/6 80/4/6 89/4/6
f 89/4/6 80/4/6 90/4/6
f 82/4/6 89/4/6 91/4/6
f 89/3/6 90/3/6 91/3/6
f 91/3/6 90/3/6 92/3/6
f 83/4/6 84/4/6 93/4/6
f 93/4/6 84/4/6 94/4/6
f 83/4/6 93/4/6 95/4/6
f 93/3/6 94/3/6 95/3/6
f 94/4/6 84/4/6 96/4/6
f 95/3/6 94/3/6 96/3/6
f 81/1/6 83/1/6 97/1/6
f 83/4/6 95/4/6 97/4/6
f 95/4/6 96/4/6 97/4/6
f 84/1/6 82/1/6 98/1/6
f 97/4/6 96/4/6 98/4/6
f 96/4/6 84/4/6 98/4/6
f 87/4/6 88/4/6 99/4/6
f 88/4/6 81/4/6 100/4/6
f 99/4/6 88/4/6 100/4/6
f 81/1/6 97/1/6 101/1/6
f 100/4/6 81/4/6 101/4/6
f 97/1/6 98/1/6 101/1/6
f 101/1/6 98/1/6 102/1/6
f 102/1/6 98/1/6 103/1/6
f 91/4/6 92/4/6 104/4/6
f 103/1/6 98/1/6 104/1/6
f 98/1/6 82/1/6 104/1/6
f 82/4/6 91/4/6 104/4/6
f 104/4/6 92/4/6 105/4/6
f 105/4/6 92/4/6 106/4/6
f 99/2/6 100/2/6 107/2/6
f 101/4/6 102/4/6 108/4/6
f 107/2/6 100/2/6 108/2/6
f 100/4/6 101/4/6 108/4/6
f 102/3/6 103/3/6 109/3/6
f 108/4/6 102/4/6 109/4/6
f 103/4/6 104/4/6 110/4/6
f 109/3/6 103/3/6 110/3/6
f 104/4/6 105/4/6 110/4/6
f 105/2/6 106/2/6 111/2/6
f 110/4/6 105/4/6 111/4/6
f 111/2/6 106/2/6 112/2/6
